<svg width="972" height="903" xmlns="http://www.w3.org/2000/svg" xmlns:xlink="http://www.w3.org/1999/xlink" overflow="hidden"><defs><clipPath id="clip0"><rect x="1622" y="577" width="972" height="903"/></clipPath></defs><g clip-path="url(#clip0)" transform="translate(-1622 -577)"><path d="M2111.85 613.108 2553.88 1055.14 2256.96 1352.06 1966.75 1352.06 1669.82 1055.14Z" fill="#F7449A" fill-rule="evenodd" fill-opacity="1"/><path d="M1658.51 1011.78 1667.32 1011.3 1667.1 1011.31 1675.61 1010.8 1692.24 1009.86 1709.22 1009.42 1726.63 1010.02 1736.3 1010.94 1745.91 1012.31 1755.8 1014.2 1765.97 1016.67 1776.45 1019.73 1787.26 1023.44 1798.46 1027.8 1810.35 1032.97 1817.59 1036.55 1825.02 1040.71 1832.46 1045.28 1839.97 1050.21 1847.59 1055.49 1855.43 1061.15 1871.12 1073.03 1887.29 1085.79 1903.62 1098.97 1919.9 1112.24 1935.92 1125.24 1935.66 1125.03 1951.32 1137.51 1950.83 1137.12 1965.81 1148.65 1965.24 1148.21 1972.39 1153.5 1971.87 1153.11 1978.75 1158.01 1978.08 1157.55 1984.67 1162.01 1983.8 1161.44 1990.05 1165.43 1988.91 1164.73 1994.79 1168.18 1993.26 1167.33 1998.74 1170.21 1996.63 1169.19 2001.68 1171.44 1998.67 1170.25 2003.26 1171.83 1998.82 1170.61 2002.91 1171.46 1996.24 1170.7 1999.79 1170.78 1990.13 1171.85 1993.11 1171.11 1981.44 1176.31 1983.83 1174.69 1973.55 1185.19 1975.18 1182.66 1970.25 1194.32 1971.05 1190.88 1970.11 1199.06 1970.12 1194.77 1970.48 1199.96 1969.76 1194.87 1970.39 1198.22 1969 1192.39 1969.61 1194.63 1967.61 1188.09 1968.13 1189.65 1965.57 1182.47 1965.99 1183.57 1962.94 1175.8 1963.26 1176.59 1959.78 1168.28 1960.02 1168.84 1956.16 1160.04 1956.33 1160.43 1952.16 1151.2 1952.27 1151.45 1947.84 1141.84 1947.91 1141.99 1938.47 1121.77 1928.59 1100.42 1918.68 1078.23 1909.29 1055.74 1904.83 1044.2 1900.7 1032.78 1896.92 1021.36 1893.56 1009.97 1890.67 998.6 1888.35 987.235 1886.7 975.84 1885.84 964.362 1885.97 952.736 1887.34 940.917 1890.3 928.946 1895.02 917.642 1900.86 907.849 1907.28 899.124 1914.38 890.934 1922.09 883.142 1930.37 875.654 1939.19 868.412 1948.5 861.383 1958.27 854.55 1968.47 847.905 1979.04 841.453 1989.95 835.201 2001.34 829.057 2024.21 817.772 2047.88 807.436 2071.55 798.401 2083.66 794.283 2095.48 790.608 2107.19 787.33 2118.74 784.476 2130.12 782.075 2141.31 780.162 2152.31 778.779 2163.12 777.981 2173.8 777.847 2184.4 778.499 2195.01 780.128 2205.71 783.039 2216.46 787.683 2227.19 794.771 2236.54 804.623 2243.25 815.696 2247.68 826.776 2250.6 837.794 2252.46 848.879 2253.55 860.169 2254.04 871.754 2254.03 883.68 2253.59 895.958 2252.79 908.572 2251.68 921.493 2250.28 934.787 2246.89 961.56 2242.88 988.829 2238.6 1015.87 2234.33 1042.16 2232.31 1054.81 2232.33 1054.66 2230.4 1067.01 2230.44 1066.77 2228.66 1078.68 2228.71 1078.34 2227.12 1089.72 2227.18 1089.25 2225.82 1100.04 2225.89 1099.41 2224.79 1109.52 2224.87 1108.68 2224.07 1118.04 2224.15 1116.9 2223.69 1125.43 2223.74 1123.86 2223.66 1131.49 2223.62 1129.26 2223.95 1135.92 2223.64 1132.65 2224.43 1138.25 2223.37 1133.25 2224.64 1137.72 2222.48 1132.02 2224.13 1135.46 2220.99 1130.1 2222.85 1132.74 2217.45 1126.66 2219.51 1128.52 2211.38 1122.97 2213.64 1124.1 2203.8 1120.81 2206.25 1121.26 2196.94 1120.77 2199.56 1120.57 2192.26 1121.87 2195.04 1121.08 2189.83 1123 2192.78 1121.65 2189.16 1123.55 2192.25 1121.7 2189.72 1123.36 2192.96 1121.04 2191.17 1122.41 2194.53 1119.67 2193.24 1120.77 2196.72 1117.65 2195.42 1118.87 2202.71 1111.67 2201.71 1112.7 2209.37 1104.52 2208.92 1105.01 2216.88 1096.2 2225.17 1086.98 2234 1077.41 2243.37 1067.82 2253.38 1058.5 2263.83 1050.08 2270.11 1045.77 2276.52 1041.98 2283.55 1038.57 2290.51 1036.01 2302.11 1032.71 2315.7 1029.33 2434.78 1023.75 2438.22 1097 2322.75 1102.42 2329.87 1101.38 2320.38 1103.73 2321.58 1103.41 2311.89 1106.17 2314.5 1105.32 2310.55 1106.77 2313.95 1105.33 2309.94 1107.28 2312.58 1105.85 2308.51 1108.26 2310.57 1106.95 2306.46 1109.77 2308.72 1108.09 2300.39 1114.79 2302.39 1113.06 2293.99 1120.88 2295.23 1119.68 2286.83 1128.28 2287.54 1127.52 2279.21 1136.55 2279.53 1136.2 2271.31 1145.34 2263.13 1154.4 2254.75 1163.35 2246.32 1171.68 2241.54 1175.96 2236.65 1179.95 2231.27 1183.81 2225.12 1187.49 2217.78 1190.85 2208.73 1193.42 2197.71 1194.25 2185.49 1192.02 2174.11 1186.32 2165.32 1178.39 2159.29 1169.87 2154.99 1160.85 2152.16 1150.98 2150.79 1141.22 2150.32 1131.81 2150.42 1122.27 2150.96 1112.37 2151.84 1102.01 2153.03 1091.15 2154.46 1079.81 2156.11 1068.02 2157.93 1055.83 2159.88 1043.28 2161.95 1030.42 2166.2 1004.2 2166.18 1004.33 2170.42 977.558 2170.36 977.967 2174.28 951.262 2174.18 951.979 2177.48 925.955 2177.39 926.734 2178.71 914.168 2178.65 914.847 2179.7 902.681 2179.63 903.512 2180.38 891.823 2180.32 892.845 2180.72 881.709 2180.7 882.973 2180.71 872.468 2180.74 874.045 2180.33 864.247 2180.47 866.24 2179.59 857.225 2179.93 859.774 2178.56 851.619 2179.27 854.911 2177.36 847.693 2178.77 851.946 2176.29 845.742 2178.96 851.108 2175.86 845.994 2180.64 852.25 2176.89 848.303 2183.27 853.644 2178.73 850.65 2184.41 853.721 2179.03 851.396 2183.94 853.115 2177.77 851.435 2181.83 852.297 2174.92 851.236 2178.23 851.592 2170.65 851.125 2173.36 851.192 2165.16 851.294 2167.4 851.198 2158.64 851.844 2160.52 851.656 2151.27 852.821 2152.87 852.583 2143.18 854.241 2144.57 853.975 2134.49 856.101 2135.72 855.821 2125.32 858.389 2126.41 858.1 2115.75 861.085 2116.75 860.791 2105.89 864.168 2106.81 863.869 2095.79 867.612 2097.07 867.151 2074.85 875.638 2076.44 874.987 2054.34 884.637 2055.89 883.917 2034.38 894.527 2035.57 893.915 2025.18 899.518 2026 899.058 2015.94 904.826 2016.81 904.313 2007.13 910.22 2008.05 909.639 1998.82 915.659 1999.81 914.99 1991.07 921.099 1992.15 920.315 1983.97 926.487 1985.16 925.553 1977.6 931.763 1978.91 930.629 1972.03 936.852 1973.5 935.448 1967.36 941.658 1969 939.886 1963.65 946.059 1965.47 943.78 1960.97 949.89 1962.94 946.914 1959.36 952.936 1961.69 948.3 1959.05 954.617 1960.81 949.309 1959.08 956.286 1959.91 951.686 1959.03 959.271 1959.27 955.443 1959.19 963.583 1959.09 960.457 1959.73 969.101 1959.45 966.564 1960.78 975.66 1960.42 973.599 1962.35 983.094 1961.97 981.413 1964.46 991.256 1964.09 989.878 1967.08 1000.02 1966.73 998.881 1970.16 1009.26 1969.84 1008.33 1973.66 1018.9 1973.37 1018.13 1977.51 1028.84 1977.15 1027.94 1986.18 1049.57 1985.82 1048.75 1995.45 1070.3 1995.24 1069.85 2004.99 1090.91 2004.94 1090.8 2014.39 1111.04 2018.92 1120.85 2023.24 1130.4 2027.3 1139.66 2031.06 1148.64 2034.47 1157.35 2037.5 1165.85 2040.07 1174.27 2042.13 1182.9 2043.45 1192.27 2043.44 1203.31 2040.27 1217.04 2031.08 1231.27 2017.11 1240.71 2003.07 1244.2 1991.24 1243.94 1981.6 1241.93 1973.31 1239.08 1965.71 1235.69 1958.41 1231.86 1951.19 1227.62 1943.93 1223 1936.58 1218.01 1929.09 1212.68 1921.39 1206.99 1905.87 1195.06 1889.84 1182.28 1873.58 1169.09 1857.36 1155.87 1857.49 1155.98 1841.38 1142.97 1841.71 1143.24 1825.99 1130.83 1826.57 1131.28 1811.49 1119.87 1812.15 1120.36 1804.93 1115.14 1805.52 1115.56 1798.57 1110.74 1799.32 1111.25 1792.66 1106.87 1793.62 1107.48 1787.29 1103.6 1788.54 1104.33 1782.57 1100.99 1784.24 1101.87 1778.66 1099.11 1780.3 1099.87 1769.87 1095.34 1771.17 1095.87 1761.34 1092.04 1762.78 1092.57 1753.47 1089.38 1755.04 1089.88 1746.19 1087.29 1747.87 1087.73 1739.4 1085.68 1741.14 1086.06 1732.99 1084.5 1734.73 1084.79 1726.83 1083.67 1728.5 1083.87 1720.78 1083.13 1723 1083.27 1707.8 1082.75 1710.01 1082.76 1694.69 1083.16 1695.8 1083.11 1679.8 1084.01 1679.95 1084 1671.41 1084.52 1662.49 1085ZM2433.62 987.1C2494.32 984.712 2544.82 1015.58 2546.42 1056.05 2548.01 1096.52 2500.09 1131.27 2439.38 1133.65 2378.68 1136.04 2328.18 1105.17 2326.58 1064.7 2324.99 1024.23 2372.91 989.487 2433.62 987.1Z" fill="#FFFFFF" fill-rule="nonzero" fill-opacity="1"/><text fill="#FFFFFF" fill-opacity="1" font-family="Calibri,Calibri_MSFontService,sans-serif" font-style="normal" font-variant="normal" font-weight="700" font-stretch="normal" font-size="110" text-anchor="start" direction="ltr" writing-mode="lr-tb" unicode-bidi="normal" text-decoration="none" transform="matrix(1 0 0 1 2018.47 1312)">ABC</text><path d="M2533 1055 2556.94 1055" stroke="#F7449A" stroke-width="18.3333" stroke-linecap="butt" stroke-linejoin="miter" stroke-miterlimit="8" stroke-opacity="1" fill="none" fill-rule="evenodd"/><path d="M2558 1055 2580.59 1070.53" stroke="#F7449A" stroke-width="18.3333" stroke-linecap="butt" stroke-linejoin="miter" stroke-miterlimit="8" stroke-opacity="1" fill="none" fill-rule="evenodd"/><path d="M0 0 21.8943 19.7581" stroke="#F7449A" stroke-width="18.3333" stroke-linecap="butt" stroke-linejoin="miter" stroke-miterlimit="8" stroke-opacity="1" fill="none" fill-rule="evenodd" transform="matrix(1 0 0 -1 2558 1054.76)"/><path d="M1851.5 1344.5 2374.27 1344.5" stroke="#FFFFFF" stroke-width="4.58333" stroke-linecap="butt" stroke-linejoin="miter" stroke-miterlimit="8" stroke-opacity="1" fill="none" fill-rule="evenodd"/><path d="M1851.5 1333.5 2374.27 1333.5" stroke="#FFFFFF" stroke-width="4.58333" stroke-linecap="butt" stroke-linejoin="miter" stroke-miterlimit="8" stroke-opacity="1" fill="none" fill-rule="evenodd"/><path d="M1906.5 1388.5 2429.27 1388.5" stroke="#FFFFFF" stroke-width="4.58333" stroke-linecap="butt" stroke-linejoin="miter" stroke-miterlimit="8" stroke-opacity="1" fill="none" fill-rule="evenodd"/><path d="M1828.5 1321.5 2351.27 1321.5" stroke="#FFFFFF" stroke-width="4.58333" stroke-linecap="butt" stroke-linejoin="miter" stroke-miterlimit="8" stroke-opacity="1" fill="none" fill-rule="evenodd"/><path d="M1628.5 1002.5 2102.58 1473.34" stroke="#FFFFFF" stroke-width="4.58333" stroke-linecap="butt" stroke-linejoin="miter" stroke-miterlimit="8" stroke-opacity="1" fill="none" fill-rule="evenodd"/><path d="M0 0 291.422 288.927" stroke="#FFFFFF" stroke-width="4.58333" stroke-linecap="butt" stroke-linejoin="miter" stroke-miterlimit="8" stroke-opacity="1" fill="none" fill-rule="evenodd" transform="matrix(-1 0 0 1 2500.92 1096.5)"/><path d="M2498.17 1011.99 2066.5 580.5" stroke="#FFFFFF" stroke-width="4.58333" stroke-linecap="butt" stroke-linejoin="miter" stroke-miterlimit="8" stroke-opacity="1" fill="none" fill-rule="evenodd"/><path d="M0 0 525.255 526.382" stroke="#FFFFFF" stroke-width="4.58333" stroke-linecap="butt" stroke-linejoin="miter" stroke-miterlimit="8" stroke-opacity="1" fill="none" fill-rule="evenodd" transform="matrix(1 0 0 -1 1631.5 1107.88)"/><path d="M0 7.9999C-4.20134e-15 3.58168 7.3873 0 16.5 0 25.6127-2.03699e-15 33 3.58168 33 7.9999 33 12.4181 25.6127 15.9998 16.5 15.9998 7.3873 15.9998-6.30201e-15 12.4181 0 7.9999Z" fill="#F7449A" fill-rule="evenodd" fill-opacity="1" transform="matrix(1 0 0 -1 2429 1042)"/><path d="M2429 1082.5C2429 1077.81 2436.39 1074 2445.5 1074 2454.61 1074 2462 1077.81 2462 1082.5 2462 1087.19 2454.61 1091 2445.5 1091 2436.39 1091 2429 1087.19 2429 1082.5Z" fill="#F7449A" fill-rule="evenodd" fill-opacity="1"/></g></svg>
